{"title":"Despicable Me 2 2013 TS  XViD UNiQUE","uid":8684567,"size":1505208659,"categoryP":"video","categoryS":"movies","magnet":"?xt=urn:btih:26542e44132f5eb8aa4360eabfd18f78cae6a13e&amp;dn=Despicable+Me+2+2013+TS++XViD+UNiQUE&amp;tr=udp%3A%2F%2Ftracker.openbittorrent.com%3A80&amp;tr=udp%3A%2F%2Fopen.demonii.com%3A1337&amp;tr=udp%3A%2F%2Ftracker.coppersurfer.tk%3A6969&amp;tr=udp%3A%2F%2Fexodus.desync.com%3A6969","seeders":5,"leechers":0,"uploader":"xxxlavalxxx","files":-1,"time":1373766276,"description":"\n\n &lt;a href=&quot;\nhttp://www.imdb.com/title/tt1690953/&quot; rel=&quot;nofollow&quot; target=&quot;_NEW&quot;&gt;\nhttp://www.imdb.com/title/tt1690953/&lt;/a&gt;\n\n\n\n\nGru is recruited by the Anti-Villain League to help deal with a powerful new super criminal. \n\n\n\nDirectors:\n Pierre Coffin, Chris Renaud \n\nWriters:\n Ken Daurio (screenplay), Cinco Paul (screenplay) \n\nStars:\n Steve Carell, Kristen Wiig, Benjamin Bratt\n\nGenres:\n  Animation |  Comedy |  Crime |  Family \n\nCountry:\n USA \n\nLanguage:\n English \n\n\n\n\nFormat                                   : AVI\n Format/Info                              : Audio Video Interleave\n File size                                : 1.38 GiB\n Duration                                 : 1h 33mn\n Overall bit rate                         : 2 112 Kbps\n Writing application                      : VirtualDubMod 1.5.10.2 (build 2540/release)\n Writing library                          : VirtualDubMod build 2540/release\n\n Video\n ID                                       : 0\n Format                                   : MPEG-4 Visual\n Format profile                           : Advanced Simple@L5\n Format settings, BVOP                    : 2\n Format settings, QPel                    : No\n Format settings, GMC                     : No warppoints\n Format settings, Matrix                  : Default (H.263)\n Muxing mode                              : Packed bitstream\n Codec ID                                 : XVID\n Codec ID/Hint                            : XviD\n Duration                                 : 1h 33mn\n Bit rate                                 : 1 976 Kbps\n Width                                    : 720 pixels\n Height                                   : 384 pixels\n Display aspect ratio                     : 1.85:1\n Frame rate                               : 20.000 fps\n Color space                              : YUV\n Chroma subsampling                       : 4:2:0\n Bit depth                                : 8 bits\n Scan type                                : Progressive\n Compression mode                         : Lossy\n Bits/(Pixel*Frame)                       : 0.357\n Stream size                              : 1.30 GiB (94%)\n Writing library                          : XviD 64\n\n Audio\n ID                                       : 1\n Format                                   : MPEG Audio\n Format version                           : Version 1\n Format profile                           : Layer 3\n Codec ID                                 : 55\n Codec ID/Hint                            : MP3\n Duration                                 : 1h 33mn\n Bit rate mode                            : Constant\n Bit rate                                 : 128 Kbps\n Channel(s)                               : 2 channels\n Sampling rate                            : 44.1 KHz\n Compression mode                         : Lossy\n Stream size                              : 85.9 MiB (6%)\n Alignment                                : Split accross interleaves\n Interleave, duration                     : 50 ms (1.00 video frame)\n Interleave, preload duration             : 500 ms\n\n\n\n\n\n Source Used          1080p Troublemaker/ AFRiEND           - Thanks\n\n &lt;a href=&quot;\nhttp://www.imdb.com/title/tt1690953&quot; rel=&quot;nofollow&quot; target=&quot;_NEW&quot;&gt;\nhttp://www.imdb.com/title/tt1690953&lt;/a&gt;\n\n\n While Gru, the ex-supervillain is adjusting to family life and an attempted honest living in the jam business, a secret Arctic laboratory is stolen. The Anti-Villain League decides it needs an insider's help and recruits Gru in the investigation. Together with the eccentric AVL agent, Lucy Wilde, Gru concludes that his prime suspect is the presumed dead supervillain, El Macho, whose his teenage son is also making the moves on his eldest daughter, Margo. Seemingly blinded by his overprotectiveness of his children and his growing mutual attraction to Lucy, Gru seems on the wrong track even as his minions are being quietly kidnapped en masse for some malevolent purpose.\n\n\n\n\n\n Basically same deal as 720 sharpened added saturation and sharpened oh n cropped :lol:\n\n There wasn't any screens included so i took a couple from the sample with VLC :)\n\n\n\n\nscreens\n\n    &lt;a href=&quot;\thttp://addpix.net/viewer.php?file=45047320604661331387.jpg&quot; rel=&quot;nofollow&quot; target=&quot;_NEW&quot;&gt;\thttp://addpix.net/viewer.php?file=45047320604661331387.jpg&lt;/a&gt;\n    &lt;a href=&quot;\thttp://addpix.net/viewer.php?file=24185582631769097796.jpg&quot; rel=&quot;nofollow&quot; target=&quot;_NEW&quot;&gt;\thttp://addpix.net/viewer.php?file=24185582631769097796.jpg&lt;/a&gt;\n    &lt;a href=&quot;\thttp://addpix.net/viewer.php?file=24246043448338714263.jpg&quot; rel=&quot;nofollow&quot; target=&quot;_NEW&quot;&gt;\thttp://addpix.net/viewer.php?file=24246043448338714263.jpg&lt;/a&gt;\n\n","torrent":{"xt":"urn:btih:26542e44132f5eb8aa4360eabfd18f78cae6a13e","amp;dn":"Despicable+Me+2+2013+TS++XViD+UNiQUE","amp;tr":["udp%3A%2F%2Ftracker.openbittorrent.com%3A80","udp%3A%2F%2Fopen.demonii.com%3A1337","udp%3A%2F%2Ftracker.coppersurfer.tk%3A6969","udp%3A%2F%2Fexodus.desync.com%3A6969"],"infoHash":"26542e44132f5eb8aa4360eabfd18f78cae6a13e","infoHashBuffer":{"type":"Buffer","data":[38,84,46,68,19,47,94,184,170,67,96,234,191,209,143,120,202,230,161,62]},"announce":[],"urlList":[]}}